<svg width="176" height="35" viewBox="0 0 176 35" fill="none" xmlns="http://www.w3.org/2000/svg">
<g clip-path="url(#clip0_29_510)">
<path d="M25.0022 16.3042C25.0022 15.9084 24.945 15.536 24.8185 15.1983C24.6998 14.8715 24.5249 14.568 24.3018 14.3014C24.077 14.046 23.7986 13.8432 23.4865 13.7076C23.142 13.5598 22.7707 13.4846 22.3959 13.4867C21.9826 13.4867 21.6153 13.5566 21.2822 13.7076C20.953 13.8424 20.6558 14.0449 20.4099 14.3019C20.1658 14.5614 19.9746 14.8658 19.8467 15.1983C19.7089 15.536 19.6518 15.9084 19.6518 16.3042V24.1635C19.6536 24.259 19.6254 24.3527 19.5712 24.4314C19.5253 24.513 19.4564 24.5946 19.3763 24.6528C19.295 24.7143 19.2062 24.7652 19.112 24.8043C19.0202 24.839 18.9167 24.8624 18.8366 24.8624H15.6216C15.2426 24.8624 15.0477 24.6762 15.0477 24.2916V9.9004C15.0477 9.51626 15.2426 9.33005 15.6216 9.33005H17.8489C18.0443 9.33005 18.2162 9.39994 18.3887 9.53921C18.5611 9.67899 18.6641 9.84224 18.7101 10.029L19.0432 11.4257C19.3533 11.0181 19.686 10.6687 20.065 10.3896C20.422 10.1047 20.816 9.86954 21.2363 9.69073C21.6495 9.50452 22.0627 9.37648 22.4994 9.29485C22.9269 9.21208 23.3612 9.16938 23.7967 9.16732C24.1298 9.16732 24.5084 9.21323 24.9221 9.29485C25.3353 9.38821 25.7603 9.52799 26.1735 9.73715C26.5984 9.94682 26.9999 10.2146 27.4019 10.5524C27.8039 10.8901 28.16 11.2972 28.4696 11.7981C28.7798 12.2874 29.0323 12.8694 29.216 13.5449C29.3996 14.2081 29.4915 14.9768 29.4915 15.8385V24.3151C29.4915 24.6875 29.3078 24.8742 28.9405 24.8742H25.5766C25.1976 24.8742 25.0022 24.6875 25.0022 24.3151V16.3042Z" fill="#2C43DD"/>
<path fill-rule="evenodd" clip-rule="evenodd" d="M47.5945 24.8624C47.9521 24.8624 48.1367 24.6762 48.1367 24.315H48.1485V9.85397C48.1485 9.49279 47.9638 9.30658 47.6062 9.30658H45.0437C44.8703 9.30658 44.7555 9.35301 44.6979 9.43463C44.6397 9.51625 44.582 9.65603 44.5132 9.85397L44.0398 11.1931C43.5155 10.571 42.872 10.0601 42.1471 9.69072C41.4084 9.33005 40.5891 9.14385 39.6541 9.14385C38.5578 9.14385 37.5421 9.35301 36.5957 9.77235C35.672 10.1758 34.8367 10.7574 34.1379 11.4839C33.4348 12.2179 32.8785 13.0795 32.4988 14.0224C32.0947 15.0003 31.8988 16.0364 31.8988 17.1312C31.8988 18.33 32.1065 19.4131 32.5334 20.391C32.9604 21.3695 33.5262 22.2071 34.2414 22.906C34.952 23.6008 35.7909 24.1506 36.7115 24.5247C37.6376 24.9056 38.6298 25.0994 39.6311 25.0951C40.4392 25.0951 41.2008 24.9435 41.9048 24.6176C42.6088 24.3033 43.2322 23.8493 43.7857 23.2672L43.9474 23.6978L43.9903 23.811C44.0163 23.8794 44.0454 23.9554 44.0745 24.0355C44.129 24.1668 44.1907 24.295 44.2591 24.4196C44.3285 24.5482 44.4208 24.6528 44.5132 24.7344C44.605 24.816 44.7208 24.8619 44.8478 24.8619L47.5945 24.8624ZM42.4593 14.43C42.7981 14.7824 43.0648 15.1976 43.2444 15.6523C43.4319 16.1138 43.5185 16.61 43.4985 17.1077C43.5004 17.6138 43.4064 18.1156 43.2215 18.5866C43.0251 19.0524 42.771 19.46 42.4364 19.8089C42.1027 20.1546 41.7073 20.4349 41.2707 20.6354C40.8152 20.8463 40.3187 20.9537 39.8168 20.9501C39.3092 20.9501 38.824 20.8568 38.3858 20.6594C37.9565 20.468 37.5684 20.1951 37.2431 19.8559C36.923 19.4957 36.6691 19.0817 36.4932 18.6331C36.3085 18.1673 36.2162 17.6551 36.2162 17.1077C36.2162 16.5374 36.3197 16.0135 36.5162 15.5477C36.7012 15.0966 36.9714 14.6855 37.312 14.3366C37.6416 14.0029 38.0339 13.7376 38.4664 13.5561C38.9006 13.3712 39.3678 13.2763 39.8397 13.277C40.3416 13.2733 40.8381 13.3806 41.2937 13.5913C41.7441 13.801 42.1252 14.0805 42.4598 14.4295L42.4593 14.43Z" fill="#2C43DD"/>
<path d="M172.198 20.065C171.558 20.7986 170.627 21.2409 169.474 21.2526C167.309 21.2878 165.447 19.6227 165.307 17.4572C165.145 14.9421 166.948 13.0322 169.404 13.0322C170.592 13.0322 171.546 13.475 172.198 14.2203C172.431 14.4764 172.803 14.5575 173.106 14.383L175.387 13.0556C175.478 13.0044 175.556 12.9337 175.616 12.8487C175.675 12.7637 175.716 12.6664 175.734 12.564C175.751 12.4615 175.746 12.3564 175.719 12.2562C175.691 12.1559 175.641 12.0631 175.573 11.9843C173.979 10.11 171.558 8.94538 168.939 9.03874C164.585 9.19025 161.268 12.846 161.303 17.2011C161.338 21.6368 164.772 25.2348 169.218 25.2348C171.744 25.2348 174.049 24.0819 175.585 22.2775C175.651 22.1973 175.698 22.1037 175.724 22.0032C175.75 21.9028 175.754 21.7979 175.735 21.6959C175.716 21.5939 175.675 21.4973 175.615 21.4127C175.555 21.3281 175.477 21.2576 175.387 21.2062L173.094 19.89C172.946 19.8159 172.778 19.7929 172.616 19.8246C172.454 19.8562 172.307 19.9408 172.198 20.065ZM98.7104 16.1527C98.7104 15.7568 98.6543 15.3962 98.541 15.0585C98.4381 14.7501 98.2815 14.4623 98.0783 14.2085C97.88 13.9759 97.6335 13.7891 97.3559 13.6612C97.0682 13.5339 96.7564 13.4704 96.4418 13.475C96.1143 13.475 95.8097 13.5331 95.5388 13.6612C95.2669 13.788 95.0247 13.9705 94.8277 14.1968C94.6241 14.4442 94.4708 14.7289 94.3762 15.035C94.2682 15.3938 94.2149 15.7668 94.218 16.1415V24.2798C94.2293 24.4783 94.1844 24.6175 94.0716 24.7109C93.9701 24.8043 93.8232 24.8507 93.6426 24.8507H90.2338C89.8614 24.8507 89.6808 24.6645 89.6808 24.2798V9.87691C89.6808 9.49277 89.8614 9.30657 90.2338 9.30657H92.3897C92.5815 9.30657 92.7509 9.37646 92.9202 9.51573C93.0896 9.65602 93.1911 9.81875 93.236 10.0055L93.5635 11.3793C94.1165 10.5758 94.7374 10.005 95.4485 9.66775C96.1597 9.33003 96.9386 9.15505 97.7738 9.15505C98.1125 9.15505 98.4619 9.19025 98.8349 9.26014C99.2073 9.33003 99.5797 9.45808 99.9408 9.63255C100.326 9.82296 100.683 10.0659 101.002 10.3544C101.34 10.6574 101.645 11.0416 101.905 11.4956C102.503 10.7385 103.191 10.1565 103.97 9.74886C104.749 9.35299 105.573 9.14383 106.442 9.14383C107.379 9.14383 108.192 9.33003 108.88 9.70244C109.566 10.0667 110.154 10.5897 110.596 11.2278C111.047 11.868 111.386 12.6133 111.612 13.475C111.837 14.3249 111.95 15.2329 111.95 16.1991V24.3033C111.95 24.6757 111.77 24.8624 111.397 24.8624H108.067C107.706 24.8624 107.526 24.6762 107.526 24.3033V16.1644C107.526 15.7686 107.481 15.4079 107.379 15.0702C107.296 14.7662 107.154 14.4814 106.961 14.232C106.782 13.9983 106.55 13.8107 106.284 13.6846C106.002 13.5512 105.693 13.4835 105.381 13.4867C105.043 13.4867 104.738 13.5449 104.456 13.6729C104.176 13.7969 103.928 13.9843 103.733 14.2203C103.523 14.4664 103.362 14.751 103.259 15.0585C103.147 15.3849 103.09 15.7456 103.09 16.1527L103.101 24.2916C103.101 24.664 102.921 24.8507 102.559 24.8507H99.2185C98.8573 24.8507 98.6767 24.6645 98.6767 24.2916V16.1527H98.7104Z" fill="#2C43DD"/>
<path fill-rule="evenodd" clip-rule="evenodd" d="M130.655 24.8624C131.013 24.8624 131.198 24.6762 131.198 24.315H131.209V9.85395C131.209 9.49276 131.025 9.30656 130.667 9.30656H128.105C127.932 9.30656 127.816 9.35298 127.758 9.43461C127.701 9.51623 127.643 9.65601 127.574 9.85395L127.101 11.1931C126.576 10.571 125.933 10.0602 125.208 9.6907C124.469 9.33003 123.65 9.14382 122.715 9.14382C121.619 9.14382 120.603 9.35298 119.657 9.77232C118.733 10.1758 117.898 10.7574 117.199 11.4839C116.496 12.2178 115.939 13.0794 115.56 14.0223C115.156 15.0003 114.96 16.0364 114.96 17.1312C114.96 18.33 115.167 19.413 115.594 20.391C116.021 21.3694 116.587 22.2071 117.302 22.906C118.013 23.6006 118.851 24.1504 119.772 24.5247C120.698 24.9056 121.69 25.0994 122.692 25.095C123.5 25.095 124.262 24.9435 124.966 24.6175C125.67 24.3033 126.293 23.8493 126.847 23.2672L127.008 23.6977L127.051 23.811C127.077 23.8794 127.106 23.9554 127.135 24.0355C127.193 24.1752 127.251 24.2916 127.32 24.4196C127.389 24.5482 127.482 24.6527 127.574 24.7344C127.666 24.816 127.782 24.8619 127.909 24.8619L130.655 24.8624ZM125.53 14.4299C125.862 14.786 126.124 15.2005 126.304 15.6523C126.488 16.118 126.592 16.6072 126.557 17.1077C126.559 17.6137 126.465 18.1156 126.28 18.5866C126.105 19.0406 125.842 19.4559 125.507 19.8089C125.174 20.1545 124.778 20.4347 124.342 20.6353C123.886 20.8462 123.389 20.9537 122.887 20.9501C122.38 20.9501 121.895 20.8568 121.456 20.6593C121.027 20.4679 120.639 20.195 120.314 19.8558C119.993 19.4957 119.74 19.0817 119.564 18.633C119.379 18.1673 119.287 17.6551 119.287 17.1077C119.287 16.5374 119.39 16.0134 119.587 15.5477C119.772 15.0966 120.042 14.6855 120.383 14.3366C120.713 14.003 121.105 13.7377 121.537 13.5561C121.971 13.3712 122.438 13.2763 122.91 13.277C123.43 13.277 123.915 13.3816 124.365 13.5913C124.815 13.8009 125.196 14.081 125.53 14.4299ZM149.215 26.0266C149.65 24.9905 149.867 23.7564 149.867 22.3357H149.856V9.9121C149.856 9.6907 149.798 9.5397 149.696 9.45807C149.593 9.37645 149.456 9.34125 149.284 9.34125H147.019C146.802 9.34125 146.653 9.39992 146.585 9.5045C146.516 9.62081 146.436 9.79528 146.344 10.0519L145.944 11.1813C145.415 10.5692 144.775 10.0634 144.057 9.6907C143.336 9.31829 142.524 9.13209 141.62 9.13209C140.636 9.13209 139.699 9.34125 138.806 9.76059C137.921 10.1834 137.121 10.7678 136.45 11.4839C135.764 12.2057 135.226 13.0556 134.826 14.0106C134.421 14.9806 134.215 16.0219 134.22 17.073C134.22 18.2137 134.425 19.2386 134.826 20.1813C135.237 21.1128 135.775 21.9163 136.45 22.5918C137.128 23.2583 137.928 23.7881 138.806 24.1523C139.698 24.5246 140.654 24.7145 141.62 24.7109C142.387 24.7109 143.096 24.5476 143.759 24.2334C144.43 23.907 145.037 23.4657 145.555 22.9295V23.2555C145.555 23.7794 145.452 24.2334 145.235 24.641C145.032 25.0413 144.748 25.3943 144.4 25.6771C144.057 25.9684 143.656 26.1781 143.222 26.3296C142.795 26.4772 142.346 26.5519 141.895 26.5505C141.117 26.5505 140.465 26.4576 139.939 26.2709C139.426 26.0967 138.952 25.824 138.543 25.468C138.395 25.3394 138.235 25.27 138.074 25.27C137.891 25.27 137.72 25.3746 137.571 25.5843L136.199 27.6218C136.107 27.7616 136.05 27.8896 136.015 28.0059C135.981 28.111 136.038 28.2508 136.199 28.4018C136.587 28.7865 137.021 29.1228 137.491 29.4032C137.96 29.6828 138.463 29.9154 138.978 30.0904C139.493 30.2648 140.019 30.4046 140.568 30.4862C141.117 30.5679 141.655 30.6138 142.18 30.6138C143.153 30.6138 144.102 30.451 145.029 30.1251C145.944 29.7944 146.781 29.2792 147.488 28.6115C148.209 27.9243 148.781 27.0744 149.215 26.0266ZM144.73 14.3713C145.064 14.7332 145.331 15.1512 145.519 15.6058C145.714 16.0833 145.806 16.5838 145.806 17.096C145.809 17.6153 145.708 18.13 145.508 18.6096C145.325 19.06 145.057 19.4712 144.719 19.8206C144.385 20.16 143.989 20.4327 143.552 20.6241C143.105 20.8206 142.622 20.9197 142.134 20.9149C141.596 20.9149 141.104 20.8221 140.669 20.6241C140.245 20.4351 139.864 20.1617 139.549 19.8206C139.24 19.4829 139.011 19.0871 138.84 18.6218C138.668 18.1555 138.588 17.6668 138.588 17.1312C138.588 16.5955 138.668 16.0945 138.828 15.6288C138.988 15.1635 139.217 14.7442 139.514 14.3947C139.816 14.044 140.185 13.7588 140.601 13.5566C141.036 13.3469 141.516 13.2418 142.053 13.2418C142.603 13.2418 143.095 13.3469 143.552 13.5448C143.995 13.7401 144.396 14.0209 144.73 14.3713ZM153.706 3.54345C153.551 3.74139 153.479 3.97401 153.479 4.26531V6.58239C153.479 6.93132 153.575 7.16395 153.765 7.28128C153.956 7.39709 154.207 7.45524 154.505 7.45524H157.364C157.662 7.45524 157.901 7.39709 158.056 7.26904C158.211 7.15273 158.294 6.9201 158.294 6.57014V4.26582C158.294 3.95106 158.223 3.7067 158.08 3.5205C157.937 3.34603 157.698 3.25267 157.364 3.25267H154.505C154.123 3.25267 153.849 3.34603 153.706 3.54345ZM153.683 9.46981C153.564 9.55143 153.504 9.69121 153.504 9.86568V24.3268C153.504 24.6879 153.695 24.8624 154.053 24.8624H157.747C158.116 24.8624 158.295 24.6762 158.295 24.3268V9.87741C158.295 9.71417 158.248 9.58663 158.14 9.49327C158.088 9.44283 158.027 9.40341 157.959 9.37737C157.892 9.35133 157.819 9.33922 157.747 9.34176H154.053C153.921 9.34176 153.802 9.37696 153.683 9.46981Z" fill="#2C43DD"/>
<path fill-rule="evenodd" clip-rule="evenodd" d="M59.2681 25.421C59.7282 25.421 60.2113 25.3394 60.6715 25.2348C61.1316 25.1302 61.4882 25.0257 61.9367 24.8507C62.3856 24.6762 62.7993 24.4665 63.1789 24.2451C63.363 24.1288 63.5242 24.036 63.662 23.9309C63.8232 23.8263 63.9956 23.6748 64.1338 23.5468C64.2833 23.4187 64.3869 23.3019 64.3981 23.1856C64.4098 23.0693 64.3639 23.0111 64.2604 22.8366L52.6087 13.3704C52.5348 13.314 52.442 13.2885 52.3497 13.2993C52.2574 13.3102 52.173 13.3565 52.1143 13.4285C52.0909 13.452 52.0796 13.475 52.0679 13.4984C51.9628 13.729 51.8631 13.962 51.769 14.1973C51.6145 14.5608 51.484 14.934 51.3782 15.3145C51.2052 15.967 51.1593 16.6654 51.1593 17.3638C51.1593 18.5514 51.4011 19.6227 51.8266 20.6241C52.0909 21.2414 52.4474 21.7888 52.8158 22.301C53.0341 22.6152 53.3795 22.9759 53.6555 23.2437C54.0692 23.6518 54.5293 23.9544 54.9895 24.2451C55.3231 24.4665 55.7144 24.641 56.1399 24.816C56.7036 25.0486 57.3132 25.1767 57.8881 25.3047C58.3136 25.3981 58.7967 25.4098 59.2681 25.421Z" fill="#FF4338"/>
<path fill-rule="evenodd" clip-rule="evenodd" d="M60.4373 16.794L64.9113 11.9272C64.9734 11.8571 65.0057 11.7655 65.0013 11.672C64.9969 11.5784 64.9562 11.4903 64.8879 11.4262C64.3226 10.9253 63.9813 10.6345 63.84 10.5529C63.5926 10.3896 63.3457 10.2269 63.0748 10.0754C62.5213 9.77286 61.8739 9.51677 61.0143 9.35352C60.3424 9.23186 59.66 9.17718 58.9773 9.19028C58.5534 9.20201 57.7412 9.26068 57.1291 9.47034C57.0229 9.50503 56.8347 9.55197 56.6465 9.62135C56.399 9.70297 56.1516 9.79633 55.9282 9.90091C55.5277 10.0871 55.292 10.1917 54.9038 10.4483C54.739 10.5529 54.4329 10.7391 54.1029 11.0186C54.0325 11.0768 53.9029 11.1931 53.6912 11.3798C53.6554 11.41 53.6261 11.447 53.6049 11.4887C53.5836 11.5303 53.571 11.5758 53.5677 11.6225C53.5643 11.6692 53.5704 11.716 53.5855 11.7603C53.6006 11.8046 53.6244 11.8454 53.6555 11.8803C53.6677 11.892 53.6795 11.9155 53.7029 11.9267L59.9665 16.8292C60.0961 16.945 60.3078 16.9343 60.4373 16.794Z" fill="#12DDC5"/>
<path d="M87.1021 23.9666L80.6585 15.6869L85.8533 10.2728C85.9278 10.2072 85.9742 10.1155 85.9829 10.0167C85.9964 9.92088 85.98 9.82324 85.9359 9.73712C85.8872 9.63825 85.8089 9.55697 85.712 9.5045C85.5925 9.44081 85.4587 9.40867 85.3232 9.41114H81.6951C81.4951 9.41114 81.3298 9.43461 81.2003 9.4693C81.0589 9.5045 80.9059 9.62081 80.7411 9.80701L76.312 14.7095V5.41772C76.312 5.06828 76.135 4.89381 75.782 4.89381H72.1539C71.8003 4.89381 71.6233 5.06828 71.6233 5.41772V12.3338C71.7059 12.7761 71.9534 13.3117 72.4365 13.8591C72.9191 14.3601 73.3552 14.7906 73.7909 15.0702C73.8558 15.1111 73.9093 15.1678 73.9464 15.2349C73.9835 15.3021 74.0029 15.3776 74.0029 15.4543C74.0029 15.531 73.9835 15.6065 73.9464 15.6737C73.9093 15.7409 73.8558 15.7976 73.7909 15.8385C73.4848 16.0364 73.1782 16.3042 72.8487 16.6302H72.8604C72.766 16.7118 72.6839 16.7934 72.6013 16.8751C72.5661 16.9098 72.5303 16.9444 72.5069 16.9796C71.9768 17.55 71.7059 18.1091 71.6233 18.5866V24.3966C71.6233 24.7456 71.8003 24.9206 72.1539 24.9206H75.782C76.135 24.9206 76.312 24.7456 76.312 24.3966V20.1701L77.7491 18.7029L81.8721 24.3732C82.0134 24.5711 82.1313 24.6997 82.2369 24.7808C82.343 24.8624 82.4843 24.8971 82.6613 24.8971H86.7251C86.843 24.8971 86.9491 24.8736 87.0317 24.8155C87.117 24.7699 87.1836 24.6959 87.22 24.6063C87.2669 24.513 87.2786 24.4196 87.2669 24.315C87.242 24.1866 87.1853 24.0665 87.1021 23.9656V23.9666Z" fill="#2C43DD"/>
<path d="M70.6035 13.9994C71.1177 14.535 71.7554 15.0003 72.1247 15.2452C72.1558 15.2667 72.1811 15.2954 72.1987 15.3288C72.2162 15.3623 72.2253 15.3995 72.2253 15.4372C72.2253 15.475 72.2162 15.5122 72.1987 15.5456C72.1811 15.5791 72.1558 15.6078 72.1247 15.6293C71.7666 15.8742 71.1177 16.3394 70.6035 16.8751C70.1112 17.3873 69.675 18.4703 69.4286 19.5646C69.4187 19.6136 69.3921 19.6576 69.3533 19.6893C69.3146 19.7209 69.2661 19.7382 69.2161 19.7382C69.1661 19.7382 69.1176 19.7209 69.0789 19.6893C69.0402 19.6576 69.0136 19.6136 69.0037 19.5646C68.7573 18.482 68.3211 17.3873 67.8288 16.8751C67.3146 16.3394 66.6769 15.8737 66.3075 15.6293C66.2765 15.6078 66.2511 15.5791 66.2336 15.5456C66.2161 15.5122 66.2069 15.475 66.2069 15.4372C66.2069 15.3995 66.2161 15.3623 66.2336 15.3288C66.2511 15.2954 66.2765 15.2667 66.3075 15.2452C66.6657 15.0003 67.3146 14.5345 67.8288 13.9994C68.3211 13.4867 68.7573 12.4042 69.0037 11.3094C69.0136 11.2604 69.0402 11.2163 69.0789 11.1847C69.1176 11.153 69.1661 11.1357 69.2161 11.1357C69.2661 11.1357 69.3146 11.153 69.3533 11.1847C69.3921 11.2163 69.4187 11.2604 69.4286 11.3094C69.675 12.4042 70.1 13.4867 70.6035 13.9994ZM68.0777 20.7874C68.441 21.1368 68.8889 21.4398 69.1434 21.5909C69.2404 21.649 69.2404 21.7776 69.1434 21.8357C68.8889 21.999 68.441 22.3015 68.0777 22.6392C67.739 22.9652 67.4365 23.6748 67.2549 24.3737C67.2187 24.5252 67.0003 24.5252 66.9641 24.3737C66.7947 23.6748 66.4922 22.9652 66.1412 22.6392C65.778 22.2897 65.3301 21.9867 65.0755 21.8357C65.0535 21.8238 65.0351 21.8061 65.0222 21.7845C65.0094 21.763 65.0026 21.7384 65.0026 21.7133C65.0026 21.6882 65.0094 21.6636 65.0222 21.642C65.0351 21.6205 65.0535 21.6028 65.0755 21.5909C65.3301 21.4276 65.778 21.1251 66.1412 20.7874C66.48 20.4614 66.7825 19.7518 66.9641 19.0529C67.0003 18.9014 67.2187 18.9014 67.2549 19.0529C67.4243 19.7518 67.7268 20.4502 68.0777 20.7874ZM64.1899 16.9337C64.445 17.2133 64.7751 17.4694 64.9557 17.5969C64.9706 17.6088 64.9827 17.6239 64.991 17.641C64.9994 17.6582 65.0037 17.6771 65.0037 17.6962C65.0037 17.7152 64.9994 17.7341 64.991 17.7513C64.9827 17.7685 64.9706 17.7835 64.9557 17.7954C64.7751 17.9229 64.4557 18.1795 64.1899 18.4586C63.9456 18.7269 63.7221 19.309 63.6053 19.8793C63.6022 19.9053 63.5896 19.9293 63.57 19.9467C63.5504 19.9641 63.5251 19.9737 63.4989 19.9737C63.4727 19.9737 63.4474 19.9641 63.4278 19.9467C63.4082 19.9293 63.3957 19.9053 63.3926 19.8793C63.265 19.2977 63.0523 18.7264 62.8074 18.4591C62.5524 18.1795 62.2228 17.9234 62.0422 17.7954C62.0273 17.7835 62.0153 17.7685 62.0071 17.7513C61.9988 17.7342 61.9945 17.7154 61.9945 17.6964C61.9945 17.6774 61.9988 17.6586 62.0071 17.6415C62.0153 17.6243 62.0273 17.6093 62.0422 17.5974C62.3163 17.3991 62.5723 17.177 62.8074 16.9337C63.0523 16.6659 63.2758 16.0838 63.3926 15.513C63.3957 15.487 63.4082 15.463 63.4278 15.4456C63.4474 15.4282 63.4727 15.4186 63.4989 15.4186C63.5251 15.4186 63.5504 15.4282 63.57 15.4456C63.5896 15.463 63.6022 15.487 63.6053 15.513C63.7221 16.0838 63.9349 16.6659 64.1899 16.9337Z" fill="#FFD400"/>
<path d="M0.111744 22.3357C0.057109 22.2554 0.0213547 22.1639 0.00716477 22.0679C-0.00840246 21.9742 -0.000515139 21.8781 0.0301213 21.7883C0.0653213 21.6954 0.134701 21.5904 0.251014 21.474L1.94827 19.7855C2.05285 19.6809 2.15743 19.6345 2.27323 19.6345C2.41301 19.6345 2.56401 19.7161 2.73848 19.8671C2.93591 20.0421 3.1568 20.2165 3.38943 20.391C3.62154 20.566 3.85417 20.7058 4.10975 20.8338C4.36131 20.9636 4.62651 21.0651 4.90047 21.1363C5.16779 21.218 5.44633 21.2526 5.72538 21.2526C6.05085 21.2526 6.30694 21.2297 6.52733 21.171C6.73649 21.1129 6.91096 21.0435 7.039 20.9384C7.16654 20.8455 7.2599 20.7292 7.30632 20.6007C7.35274 20.4731 7.38794 20.3329 7.38794 20.1813C7.38794 20.0069 7.35274 19.8554 7.29458 19.7273C7.23643 19.5998 7.10889 19.4947 6.93442 19.3896C6.75995 19.285 6.5161 19.1804 6.20185 19.0636C5.80069 18.9298 5.39764 18.8017 4.99281 18.6795C4.21433 18.4468 3.55216 18.179 2.98284 17.8648C2.41301 17.55 1.94827 17.1893 1.58759 16.7583C1.2157 16.3394 0.948382 15.8502 0.773913 15.3028C0.599953 14.7559 0.506597 14.1387 0.506597 13.4403C0.506597 12.8113 0.634133 12.2409 0.890226 11.7053C1.14581 11.1696 1.5177 10.7156 2.01765 10.3309C2.50585 9.94681 3.12211 9.64429 3.84243 9.42289C4.56327 9.202 5.38817 9.09691 6.30643 9.09691C6.99258 9.09691 7.58537 9.1668 8.09704 9.31831C8.60821 9.45809 9.06122 9.64429 9.44485 9.8657C9.82847 10.0866 10.1769 10.3197 10.4677 10.5876C10.7585 10.8436 11.0258 11.088 11.2696 11.3211C11.4441 11.4721 11.5252 11.6237 11.537 11.7634C11.5487 11.9032 11.4553 12.066 11.2579 12.2409L9.39842 13.8591C9.24742 13.9872 9.11937 14.0453 9.00306 14.0453C8.89848 14.0453 8.75921 13.9754 8.59647 13.8474C8.4567 13.7311 8.30569 13.6148 8.15469 13.4984C8.00505 13.3802 7.84565 13.2749 7.67821 13.1837C7.50023 13.0911 7.31322 13.0171 7.12012 12.9628C6.91096 12.9046 6.67833 12.8812 6.42275 12.8812C5.94627 12.8812 5.58611 12.9628 5.35348 13.1138C5.12137 13.2653 5.00505 13.4403 5.00505 13.6377C5.00505 13.8362 5.06321 13.9872 5.16779 14.1035C5.27237 14.2203 5.44633 14.3249 5.70242 14.4182C5.94627 14.5111 6.28348 14.6162 6.67833 14.7325C7.08543 14.8488 7.58537 15.0003 8.16642 15.1982C8.9801 15.4661 9.63054 15.7803 10.1422 16.1645C10.6539 16.5486 11.037 16.9562 11.3161 17.399C11.5851 17.82 11.778 18.285 11.8859 18.7728C11.9905 19.2503 12.0369 19.7161 12.0369 20.1813C12.0369 20.9848 11.8736 21.6954 11.537 22.3122C11.207 22.9209 10.7561 23.4557 10.2121 23.884C9.64432 24.3211 9.00254 24.6525 8.31743 24.8624C7.6066 25.0859 6.86587 25.1998 6.12074 25.2001C5.60907 25.2001 5.08617 25.1649 4.575 25.0833C4.05403 25.0038 3.54337 24.8673 3.05222 24.6762C2.53989 24.4702 2.05567 24.2002 1.61106 23.8727C1.14581 23.535 0.715756 23.1157 0.309171 22.6035C0.233954 22.5216 0.167765 22.4318 0.111744 22.3357Z" fill="#2C43DD"/>
</g>
<defs>
<clipPath id="clip0_29_510">
<rect width="175.984" height="34.6868" fill="white"/>
</clipPath>
</defs>
</svg>
