<svg width="190" height="23" viewBox="0 0 190 23" fill="none" xmlns="http://www.w3.org/2000/svg">
<mask id="mask0_29_572" style="mask-type:luminance" maskUnits="userSpaceOnUse" x="0" y="0" width="191" height="23">
<path d="M190.451 0H0V22.7143H190.451V0Z" fill="white"/>
</mask>
<g mask="url(#mask0_29_572)">
<path d="M8.56215 22.7143C5.17163 22.7143 2.31757 21.9344 0 20.3743V15.6941C0.9442 16.4845 2.18882 17.171 3.73387 17.7534C5.30038 18.315 6.8454 18.5958 8.369 18.5958C9.63507 18.5958 10.6758 18.3774 11.4913 17.9406C12.3067 17.483 12.7144 16.8589 12.7144 16.0686C12.7144 15.2156 12.3282 14.6125 11.5557 14.2588C11.2338 14.0716 10.8046 13.8844 10.2681 13.6972L9.49564 13.4477L7.69306 12.9172L6.01926 12.3868C5.78321 12.3244 5.27892 12.1475 4.50639 11.8564C3.84116 11.6068 3.35834 11.3884 3.05791 11.2011C1.94204 10.4524 1.2339 9.81792 0.933463 9.29785C0.418451 8.29946 0.160942 7.28024 0.160942 6.24022C0.160942 4.30574 0.922735 2.78729 2.44633 1.68485C3.96992 0.561619 6.04071 0 8.65873 0C11.2981 0 13.7552 0.603221 16.0299 1.80966V6.17782C13.7338 4.80496 11.2981 4.11854 8.72309 4.11854C6.16945 4.11854 4.89266 4.83616 4.89266 6.27143C4.89266 6.89542 5.28966 7.39465 6.08363 7.76908C6.55574 8.01864 7.16733 8.23706 7.91835 8.42427C8.92691 8.69469 9.74236 8.9235 10.3647 9.11072C12.2317 9.67229 13.8625 10.4316 15.2574 11.3884C16.7595 12.4076 17.5106 13.9261 17.5106 15.9437C17.5106 18.0445 16.6629 19.6982 14.9677 20.9047C13.2724 22.1111 11.1372 22.7143 8.56215 22.7143Z" fill="white"/>
<path d="M24.0247 4.46152V0.436581H42.9193V4.46152H35.7735V22.2773H31.1384V4.46152H24.0247Z" fill="white"/>
<path d="M50.8965 22.2778H46.036L55.6926 0.312263H60.1346L69.7911 22.2778H64.8664L61.1646 13.5103H54.566L50.8965 22.2778ZM57.8814 5.92845L54.566 13.5103H61.1646L57.8814 5.92845Z" fill="white"/>
<path d="M86.033 22.2773H77.5993V0.436581H86.033C89.6814 0.436581 92.6526 1.45582 94.9485 3.49428C97.2453 5.53274 98.3932 8.15362 98.3932 11.3569C98.3932 14.5811 97.2453 17.2123 94.9485 19.2508C92.6745 21.2684 89.7024 22.2773 86.033 22.2773ZM82.2344 4.46152V18.2523H85.6466C88.1578 18.2523 90.1103 17.6492 91.5047 16.4427C92.9208 15.2154 93.6293 13.5202 93.6293 11.3569C93.6293 9.19366 92.9208 7.50883 91.5047 6.30239C90.1103 5.07513 88.1578 4.46152 85.6466 4.46152H82.2344Z" fill="white"/>
<path d="M112.181 22.2773H107.578V0.436581H112.181V22.2773Z" fill="white"/>
<path d="M131.451 22.7141C128.64 22.7141 126.334 21.8717 124.53 20.1869C122.728 18.502 121.827 16.1411 121.827 13.1042V0.436581H126.43V13.2602C126.43 14.945 126.881 16.2452 127.781 17.1604C128.705 18.0547 129.928 18.502 131.451 18.502C132.996 18.502 134.219 18.0547 135.121 17.1604C136.043 16.2452 136.504 14.945 136.504 13.2602V0.436581H141.14V13.1042C141.14 16.1411 140.228 18.502 138.404 20.1869C136.601 21.8717 134.284 22.7141 131.451 22.7141Z" fill="white"/>
<path d="M155.249 22.2773H150.614V0.436581H155.218L161.751 9.48484L168.285 0.436581H172.856V22.2773H168.285V7.33202L163.104 14.3523H160.528L155.249 7.33202V22.2773Z" fill="white"/>
<path d="M186.129 5.17252H185.371V0.535448H186.083L187.693 2.56136L189.287 0.535448H190V5.17252H189.241V1.67595L187.895 3.3417H187.491L186.129 1.67595V5.17252ZM182.909 5.17252H182.151V1.18074H180.603V0.535448H184.503V1.18074H182.909V5.17252Z" fill="white"/>
</g>
</svg>
