<svg width="251" height="72" viewBox="0 0 251 72" fill="none" xmlns="http://www.w3.org/2000/svg">
<path d="M56.1167 33.7481C55.8658 39.2175 52.0487 46.7047 44.6654 56.2027C37.0312 66.1253 30.5744 71.0893 25.2932 71.0893C22.0209 71.0893 19.2503 68.0607 16.9888 62.0215C15.478 56.4661 13.9673 50.9286 12.4548 45.3911C10.7757 39.3519 8.97465 36.3233 7.04639 36.3233C6.62705 36.3233 5.15756 37.2014 2.6415 38.963L0 35.5581C2.77053 33.1209 5.50163 30.6873 8.19331 28.2465C11.8885 25.0566 14.6627 23.3721 16.5121 23.2054C20.8811 22.7861 23.5692 25.7734 24.5799 32.1657C25.6552 39.0652 26.4258 43.3607 26.8379 45.0381C28.0924 50.762 29.4759 53.6221 30.9955 53.6221C32.1783 53.6221 33.9345 51.7637 36.2821 48.0524C38.6297 44.3374 39.8931 41.5113 40.0634 39.5705C40.3985 36.3627 39.1369 34.7606 36.2821 34.7606C34.9381 34.7606 33.5546 35.0707 32.1245 35.6817C34.8843 26.6426 40.153 22.2502 47.9395 22.5011C53.7099 22.6696 56.4285 26.4132 56.097 33.7284L56.1167 33.7481Z" fill="white"/>
<path d="M90.7682 51.4556C88.4152 55.9071 85.1769 59.9374 81.0605 63.5485C75.4281 68.4229 69.7974 70.8601 64.1704 70.8601C61.5719 70.8601 59.5647 70.0178 58.1849 68.3512C56.805 66.672 56.1598 64.4947 56.2315 61.8066C56.3211 59.0342 57.1813 54.7512 58.8121 48.9539C60.4608 43.1655 61.2851 40.0545 61.2851 39.6352C61.2851 37.4488 60.5289 36.3557 59.0182 36.3557C58.5128 36.3557 57.0827 37.2446 54.7298 39.0079L51.8266 35.603L59.8909 28.2914C63.5109 25.0944 66.199 23.417 67.9677 23.2485C70.7383 22.9976 72.7776 23.8112 74.0787 25.6983C75.3797 27.58 75.8636 30.0261 75.5302 33.0386C74.4371 38.146 73.2543 44.6332 71.9963 52.5058C71.9139 56.1078 73.2149 57.907 75.9066 57.907C77.0804 57.907 79.1789 56.6705 82.2093 54.1795C84.7289 52.1079 86.788 50.1599 88.3865 48.3374L90.7807 51.4789L90.7682 51.4556ZM79.8007 6.62536C79.7165 8.71849 78.6664 10.7256 76.6467 12.6467C74.3779 14.8205 71.6881 15.9082 68.5824 15.9082C63.7922 15.9082 61.4787 13.8205 61.6471 9.63961C61.7278 7.45329 63.0091 5.35658 65.4893 3.34947C67.9677 1.34415 70.7221 0.340594 73.7507 0.340594C75.5123 0.340594 76.9836 1.03591 78.1592 2.41222C79.3366 3.79569 79.8832 5.19529 79.8007 6.61282V6.62536Z" fill="white"/>
<path d="M169.494 51.4554C167.139 55.9069 163.908 59.9373 159.788 63.5483C154.152 68.4227 148.525 70.8599 142.896 70.8599C137.43 70.8599 134.796 67.8492 134.957 61.7921C135.047 59.104 135.566 55.8783 136.534 52.097C137.502 48.3157 138.021 45.3768 138.111 43.28C138.201 40.0902 137.233 38.4899 135.208 38.4899C133.018 38.4899 130.405 41.0991 127.369 46.3033C124.162 51.7691 122.434 57.0646 122.183 62.1809C122.013 65.8009 122.368 68.5786 123.24 70.5105C117.38 70.6843 113.271 69.7166 110.929 67.6145C108.832 65.7633 107.864 62.6988 108.035 58.4104C108.115 55.7223 108.529 53.0342 109.271 50.3426C110.013 47.6545 110.425 45.2603 110.508 43.1564C110.678 40.049 109.54 38.4899 107.103 38.4899C104.994 38.4899 102.723 40.8912 100.282 45.676C97.8451 50.4698 96.4956 55.4732 96.2448 60.681C96.0763 65.3834 96.3774 68.661 97.1462 70.5069C91.3757 70.6789 87.2791 69.4639 84.8562 66.86C82.8491 64.6844 81.9315 61.3763 82.0964 56.932C82.1806 54.7564 82.5624 51.7171 83.2577 47.8211C83.9566 43.9234 84.3455 40.8859 84.4225 38.7049C84.591 37.1942 84.2075 36.438 83.2899 36.438C82.7882 36.438 81.3545 37.291 79.0015 38.9916L75.9801 35.5867C76.3959 35.257 79.0445 32.818 83.9189 28.2751C87.4493 25.0028 89.8399 23.3218 91.1051 23.2394C93.2843 23.0692 95.0477 23.9742 96.3917 25.9454C97.7358 27.9167 98.4167 30.2105 98.4167 32.818C98.4167 33.6603 98.3271 34.4577 98.1659 35.2122C99.4203 33.2821 100.89 31.5976 102.574 30.1693C106.436 26.8092 110.764 24.9186 115.556 24.4939C119.678 24.1534 122.617 25.1211 124.384 27.388C125.808 29.2392 126.48 31.8861 126.4 35.3322C126.991 34.8305 127.618 34.2821 128.294 33.6925C130.229 31.4256 132.12 29.6245 133.968 28.2805C137.081 26.0081 140.312 24.7501 143.681 24.4939C147.713 24.1569 150.616 25.1211 152.379 27.3791C153.89 29.2249 154.566 31.8592 154.397 35.291C154.318 37.6386 153.752 41.0489 152.702 45.5273C151.648 50.0075 151.125 52.5773 151.125 53.2511C151.039 55.0073 151.211 56.2259 151.627 56.8926C152.05 57.561 153.055 57.8961 154.655 57.8961C155.829 57.8961 157.926 56.6524 160.958 54.1615C163.472 52.0898 165.531 50.1419 167.13 48.3157L169.524 51.4644L169.494 51.4554Z" fill="white"/>
<path d="M216.766 51.3281C214.329 55.3603 209.539 59.3835 202.394 63.412C193.487 68.5302 184.452 71.0892 175.289 71.0892C168.485 71.0892 163.605 68.8133 160.666 64.2794C158.566 61.1612 157.558 57.4696 157.641 53.1865C157.712 46.3767 160.741 39.9073 166.709 33.7785C173.268 27.0582 180.991 23.6892 189.898 23.6892C198.132 23.6892 202.5 27.0403 203.003 33.7426C203.344 38.0131 200.987 42.4162 195.946 46.9448C190.561 51.8909 183.796 55.0359 175.642 56.3764C177.153 58.4731 179.423 59.5179 182.452 59.5179C188.5 59.5179 195.104 57.9839 202.245 54.9033C207.371 52.7439 211.403 50.4948 214.347 48.1652L216.745 51.312L216.766 51.3281ZM188.147 38.1654C188.23 35.9074 187.308 34.7784 185.377 34.7784C182.857 34.7784 180.305 36.5167 177.701 39.9862C175.103 43.4556 173.759 46.7781 173.673 49.9536C173.628 49.9536 173.628 50.5002 173.673 51.5844C177.785 50.0827 181.355 47.7852 184.371 44.6886C186.805 42.0184 188.061 39.8374 188.147 38.1654Z" fill="white"/>
<path d="M250.987 42.8767C250.647 50.6005 247.798 57.267 242.416 62.894C237.036 68.514 230.355 71.3257 222.37 71.3257C215.721 71.3257 210.686 69.1931 207.227 64.9101C204.709 61.7346 203.32 57.7419 203.069 52.9571C202.645 45.735 205.249 39.1044 210.883 33.0652C216.94 26.3628 224.538 22.9938 233.699 22.9938C239.577 22.9938 244.032 24.9829 247.063 28.9076C249.919 32.5275 251.22 37.1869 250.97 42.8857L250.987 42.8767ZM236.741 42.4036C236.825 40.1277 236.508 38.0417 235.796 36.1493C235.079 34.2551 234.058 33.3053 232.714 33.3053C228.431 33.3053 224.9 35.6224 222.141 40.2531C219.782 44.0433 218.521 48.0844 218.359 52.3782C218.27 54.4857 218.651 56.3387 219.492 57.9408C220.413 59.7902 221.714 60.7185 223.399 60.7185C227.18 60.7185 230.415 58.4874 233.106 54.0233C235.377 50.3173 236.592 46.4429 236.762 42.4036H236.741Z" fill="white"/>
</svg>
